<svg width="224.000000" height="87.210754" viewBox="0 0 224 87.2108" fill="none" xmlns="http://www.w3.org/2000/svg" xmlns:xlink="http://www.w3.org/1999/xlink">
	<desc>
			Created with Pixso.
	</desc>
	<defs>
		<filter id="filter_3_38_dd" x="158.241608" y="37.642593" width="33.647949" height="49.568161" filterUnits="userSpaceOnUse" color-interpolation-filters="sRGB">
			<feFlood flood-opacity="0" result="BackgroundImageFix"/>
			<feColorMatrix in="SourceAlpha" type="matrix" values="0 0 0 0 0 0 0 0 0 0 0 0 0 0 0 0 0 0 127 0" result="hardAlpha"/>
			<feOffset dx="0" dy="4"/>
			<feGaussianBlur stdDeviation="1.33333"/>
			<feComposite in2="hardAlpha" operator="out" k2="-1" k3="1"/>
			<feColorMatrix type="matrix" values="0 0 0 0 0 0 0 0 0 0 0 0 0 0 0 0 0 0 0.1 0"/>
			<feBlend mode="normal" in2="BackgroundImageFix" result="effect_dropShadow_1"/>
			<feBlend mode="normal" in="SourceGraphic" in2="effect_dropShadow_1" result="shape"/>
		</filter>
		<filter id="filter_3_32_dd" x="0.000000" y="0.000000" width="224.000000" height="68.000000" filterUnits="userSpaceOnUse" color-interpolation-filters="sRGB">
			<feFlood flood-opacity="0" result="BackgroundImageFix"/>
			<feColorMatrix in="SourceAlpha" type="matrix" values="0 0 0 0 0 0 0 0 0 0 0 0 0 0 0 0 0 0 127 0" result="hardAlpha"/>
			<feOffset dx="3" dy="6"/>
			<feGaussianBlur stdDeviation="1.33333"/>
			<feComposite in2="hardAlpha" operator="out" k2="-1" k3="1"/>
			<feColorMatrix type="matrix" values="0 0 0 0 0 0 0 0 0 0 0 0 0 0 0 0 0 0 0.1 0"/>
			<feBlend mode="normal" in2="BackgroundImageFix" result="effect_dropShadow_1"/>
			<feBlend mode="normal" in="SourceGraphic" in2="effect_dropShadow_1" result="shape"/>
		</filter>
	</defs>
	<g filter="url(#filter_3_38_dd)">
		<path id="massage__background" d="M162.24 58.24L187.59 79.21L187.89 37.64L162.24 58.24Z" fill="#FFFFFF" fill-opacity="1.000000" fill-rule="evenodd"/>
	</g>
	<g filter="url(#filter_3_32_dd)">
		<rect id="massage__background" x="1.000000" y="0.000002" rx="29.000000" width="216.000000" height="58.000000" fill="#FFFFFF" fill-opacity="1.000000"/>
	</g>
	<path id="massage__text" d="M127.3 23.21Q127.58 23.35 127.93 23.35Q128.29 23.35 128.57 23.21Q128.73 23.12 128.86 22.99Q129.03 22.82 129.12 22.62Q129.23 22.37 129.23 22.07Q129.23 21.81 129.13 21.58Q129.04 21.37 128.86 21.21Q128.74 21.09 128.6 21.02Q128.31 20.85 127.93 20.85Q127.6 20.85 127.33 20.99Q127.15 21.08 127.01 21.22Q126.81 21.42 126.72 21.65Q126.63 21.87 126.63 22.11Q126.63 22.38 126.73 22.61Q126.82 22.82 127.01 23Q127.14 23.13 127.3 23.21ZM56.53 36L56.53 22L54.56 22L54.56 28.68Q52.61 29.55 50.67 29.55Q48.94 29.55 47.98 28.71Q47.79 28.54 47.63 28.33Q47.04 27.55 47.04 26.32L47.04 22L45.07 22L45.07 26.54Q45.07 28.34 45.94 29.49Q46.18 29.81 46.49 30.08Q47.9 31.32 50.46 31.32Q52.33 31.32 54.56 30.45L54.56 36L56.53 36ZM172.37 22L170.11 22L170.47 31.58L172 31.58L172.37 22ZM86.77 35.6Q87.89 36.12 89.26 36.12Q90.63 36.12 91.75 35.59Q91.92 35.51 92.08 35.42Q92.75 35.04 93.27 34.51Q93.71 34.06 94.04 33.49Q94.16 33.27 94.27 33.05Q94.75 31.99 94.75 30.7Q94.75 29.39 94.25 28.31Q94.16 28.1 94.04 27.9Q93.7 27.31 93.23 26.84Q92.73 26.34 92.08 25.99Q91.94 25.91 91.8 25.84Q90.66 25.3 89.26 25.3Q87.86 25.3 86.72 25.83Q86.56 25.9 86.41 25.99Q85.74 26.35 85.23 26.87Q84.78 27.33 84.44 27.9Q84.33 28.09 84.24 28.29Q83.73 29.37 83.73 30.7Q83.73 32 84.23 33.08Q84.33 33.29 84.44 33.49Q84.76 34.04 85.19 34.48Q85.72 35.03 86.41 35.42Q86.59 35.52 86.77 35.6ZM116.96 26.38Q115.8 25.3 113.6 25.3Q112.32 25.3 111.17 25.65Q110.04 26 109.22 26.65L110.02 28.09Q110.64 27.58 111.53 27.27Q112.15 27.06 112.77 26.99Q113.07 26.96 113.38 26.96Q114.78 26.96 115.49 27.62Q115.61 27.72 115.71 27.84Q116.22 28.48 116.22 29.52L116.22 29.9L113.18 29.9Q110.96 29.9 109.94 30.75Q109.5 31.11 109.25 31.57Q108.92 32.19 108.92 33Q108.92 33.72 109.21 34.31Q109.47 34.84 109.99 35.26Q111.06 36.12 112.84 36.12Q114.05 36.12 114.94 35.73Q115.65 35.42 116.09 34.89Q116.21 34.75 116.31 34.59L116.31 36L118.14 36L118.14 29.59Q118.14 27.65 117.17 26.58Q117.07 26.48 116.96 26.38ZM155.46 31.34Q155.5 30.98 155.5 30.76Q155.5 29.17 154.84 27.94Q154.83 27.93 154.82 27.91Q154.43 27.19 153.87 26.66Q153.46 26.27 152.96 25.99Q152.8 25.89 152.63 25.81Q151.57 25.3 150.26 25.3Q148.99 25.3 147.94 25.77Q147.72 25.87 147.52 25.99Q147.02 26.27 146.6 26.66Q146.02 27.2 145.62 27.91Q145.5 28.13 145.4 28.36Q144.93 29.42 144.93 30.7Q144.93 31.98 145.41 33.04Q145.52 33.27 145.64 33.5Q145.93 34 146.32 34.41Q146.88 35.02 147.65 35.43Q148.95 36.12 150.63 36.12Q151.96 36.12 153.03 35.68Q153.79 35.36 154.37 34.84Q154.61 34.63 154.81 34.39L153.75 33.15Q153.34 33.61 152.83 33.91Q151.91 34.44 150.7 34.44Q149.42 34.44 148.49 33.88Q148.28 33.75 148.08 33.59Q147.63 33.22 147.34 32.76Q146.96 32.14 146.85 31.34L155.46 31.34ZM64.9 37.05L70.04 25.39L68.16 25.39L64.5 33.88L60.8 25.39L58.8 25.39L63.48 35.98L63.14 36.71Q62.76 37.62 62.28 37.98Q62.21 38.04 62.13 38.09Q61.71 38.35 61.12 38.35Q60.67 38.35 60.26 38.22Q59.7 38.03 59.22 37.58L58.4 39.01Q58.88 39.5 59.6 39.75Q59.9 39.85 60.21 39.91Q60.65 39.99 61.12 39.99Q62.18 39.99 62.98 39.54Q63.15 39.45 63.3 39.33Q64.22 38.68 64.9 37.05ZM82.22 38.46L82.22 34.32L80.6 34.32L80.6 25.39L72.37 25.39L72.22 28.97Q72.08 31.49 71.69 32.87Q71.41 33.89 70.79 34.19Q70.56 34.3 70.29 34.32L69.74 34.32L69.74 38.46L71.56 38.46L71.56 36L80.41 36L80.41 38.46L82.22 38.46ZM106.34 31.45Q105.82 30.77 104.76 30.5Q105.47 30.21 105.91 29.68Q105.96 29.62 106 29.56Q106.12 29.41 106.21 29.24Q106.46 28.74 106.46 28.11Q106.46 27.44 106.17 26.92Q105.9 26.45 105.4 26.11Q104.34 25.39 102.46 25.39L97.54 25.39L97.54 36L102.63 36Q104.71 36 105.76 35.24Q106.19 34.93 106.44 34.51Q106.81 33.91 106.81 33.08Q106.81 32.08 106.34 31.45ZM128.89 25.39L126.98 25.39L126.98 36L128.89 36L128.89 25.39ZM143.42 38.46L143.42 34.32L141.8 34.32L141.8 25.39L133.57 25.39L133.42 28.97Q133.28 31.49 132.89 32.87Q132.62 33.89 131.99 34.19Q131.77 34.3 131.49 34.32L130.94 34.32L130.94 38.46L132.76 38.46L132.76 36L141.62 36L141.62 38.46L143.42 38.46ZM166.68 36L166.68 25.39L162.03 25.39Q159.86 25.39 158.62 26.35Q158.23 26.64 157.97 27.01Q157.38 27.86 157.38 29.12Q157.38 30.21 157.87 30.98Q157.94 31.09 158.01 31.19Q158.05 31.23 158.09 31.28Q158.72 32.04 159.86 32.38L157.28 36L159.33 36L161.66 32.64L164.95 32.64L164.95 36L166.68 36ZM102.3 29.96L99.42 29.96L99.42 26.87L102.3 26.87Q103.83 26.87 104.31 27.59Q104.54 27.92 104.54 28.4Q104.54 28.85 104.34 29.17Q104.2 29.39 103.97 29.55Q103.4 29.96 102.3 29.96ZM148.58 27.31Q149.31 26.91 150.26 26.91Q151.17 26.91 151.89 27.29Q152.25 27.48 152.56 27.77Q152.9 28.08 153.14 28.45Q153.55 29.11 153.66 29.96L146.85 29.96Q146.96 29.02 147.43 28.34Q147.65 28.02 147.94 27.75Q148.24 27.49 148.58 27.31ZM90.74 34.14Q90.06 34.44 89.26 34.44Q88.43 34.44 87.74 34.13Q87.58 34.06 87.43 33.97Q87.12 33.79 86.87 33.56Q86.44 33.18 86.14 32.65Q86.13 32.62 86.11 32.6Q85.67 31.76 85.67 30.7Q85.67 29.61 86.13 28.77Q86.13 28.76 86.14 28.74Q86.45 28.19 86.9 27.81Q87.14 27.6 87.43 27.44Q87.55 27.36 87.69 27.3Q88.4 26.98 89.26 26.98Q90.09 26.98 90.79 27.29Q90.94 27.35 91.08 27.44Q91.39 27.61 91.65 27.84Q92.07 28.22 92.35 28.74Q92.82 29.59 92.82 30.7Q92.82 31.78 92.36 32.62Q92.36 32.63 92.35 32.65Q92.08 33.15 91.68 33.53Q91.41 33.78 91.08 33.97Q90.92 34.06 90.74 34.14ZM73.64 32.43Q73.9 31.12 73.97 29.12L74.08 27.07L78.68 27.07L78.68 34.32L72.73 34.32Q73.39 33.73 73.64 32.43ZM134.84 32.43Q135.1 31.12 135.17 29.12L135.28 27.07L139.88 27.07L139.88 34.32L133.93 34.32Q134.59 33.73 134.84 32.43ZM159.74 30.49Q159.33 30 159.33 29.17Q159.33 28.41 159.7 27.92Q160.34 27.07 162.1 27.07L164.95 27.07L164.95 31.25L162.01 31.25Q160.67 31.25 160 30.75Q159.85 30.63 159.74 30.49ZM115.06 34.14Q114.25 34.63 113.16 34.63Q112.06 34.63 111.44 34.17Q111.16 33.97 111 33.69Q110.82 33.35 110.82 32.91Q110.82 32.4 111.05 32.05Q111.58 31.27 113.26 31.27L116.22 31.27L116.22 32.75Q116 33.29 115.64 33.68Q115.38 33.95 115.06 34.14ZM104.29 34.13Q103.69 34.52 102.5 34.52L99.42 34.52L99.42 31.34L102.61 31.34Q103.8 31.34 104.34 31.74Q104.5 31.85 104.61 31.99Q104.89 32.36 104.89 32.95Q104.89 33.45 104.66 33.79Q104.52 33.99 104.29 34.13ZM170.65 35.99Q170.92 36.12 171.26 36.12Q171.56 36.12 171.81 36Q172 35.91 172.16 35.75Q172.33 35.58 172.42 35.38Q172.53 35.13 172.53 34.83Q172.53 34.53 172.42 34.28Q172.33 34.09 172.17 33.92Q172.05 33.79 171.89 33.71Q171.62 33.55 171.26 33.55Q170.92 33.55 170.65 33.69Q170.47 33.77 170.31 33.92Q170.14 34.1 170.04 34.31Q169.94 34.55 169.94 34.83Q169.94 35.13 170.05 35.37Q170.14 35.58 170.31 35.75Q170.47 35.9 170.65 35.99Z" fill="#59C630" fill-opacity="1.000000" fill-rule="evenodd"/>
</svg>
